<?xml version="1.0" encoding="UTF-8"?>
<svg width="800" height="600" viewBox="0 0 800 600" fill="none" xmlns="http://www.w3.org/2000/svg">
  <defs>
    <linearGradient id="bg" x1="80" y1="60" x2="720" y2="540" gradientUnits="userSpaceOnUse">
      <stop stop-color="#0B1220"/>
      <stop offset="1" stop-color="#0F1C38"/>
    </linearGradient>
    <linearGradient id="brand" x1="240" y1="160" x2="560" y2="420" gradientUnits="userSpaceOnUse">
      <stop stop-color="#00A6E8"/>
      <stop offset="1" stop-color="#00C2FF"/>
    </linearGradient>
    <linearGradient id="soft" x1="210" y1="170" x2="600" y2="520" gradientUnits="userSpaceOnUse">
      <stop stop-color="#FFFFFF" stop-opacity="0.18"/>
      <stop offset="1" stop-color="#FFFFFF" stop-opacity="0.02"/>
    </linearGradient>
    <filter id="shadow" x="0" y="0" width="800" height="600" filterUnits="userSpaceOnUse" color-interpolation-filters="sRGB">
      <feOffset dy="18"/>
      <feGaussianBlur stdDeviation="22"/>
      <feColorMatrix type="matrix" values="0 0 0 0 0   0 0 0 0 0.05   0 0 0 0 0.2  0 0 0 0.35 0"/>
      <feBlend in2="SourceGraphic" mode="normal"/>
    </filter>
    <filter id="cardShadow" x="0" y="0" width="800" height="600" filterUnits="userSpaceOnUse" color-interpolation-filters="sRGB">
      <feOffset dy="10"/>
      <feGaussianBlur stdDeviation="14"/>
      <feColorMatrix type="matrix" values="0 0 0 0 0   0 0 0 0 0.08   0 0 0 0 0.25  0 0 0 0.35 0"/>
      <feBlend in2="SourceGraphic" mode="normal"/>
    </filter>
  </defs>

  <!-- Canvas / background card -->
  <g filter="url(#shadow)">
    <rect x="56" y="48" width="688" height="504" rx="28" fill="url(#bg)"/>
    <rect x="56" y="48" width="688" height="504" rx="28" fill="url(#soft)"/>
  </g>

  <!-- Subtle grid -->
  <g opacity="0.12">
    <path d="M120 120H680" stroke="#FFFFFF"/>
    <path d="M120 180H680" stroke="#FFFFFF"/>
    <path d="M120 240H680" stroke="#FFFFFF"/>
    <path d="M120 300H680" stroke="#FFFFFF"/>
    <path d="M120 360H680" stroke="#FFFFFF"/>
    <path d="M120 420H680" stroke="#FFFFFF"/>
    <path d="M160 100V500" stroke="#FFFFFF"/>
    <path d="M240 100V500" stroke="#FFFFFF"/>
    <path d="M320 100V500" stroke="#FFFFFF"/>
    <path d="M400 100V500" stroke="#FFFFFF"/>
    <path d="M480 100V500" stroke="#FFFFFF"/>
    <path d="M560 100V500" stroke="#FFFFFF"/>
    <path d="M640 100V500" stroke="#FFFFFF"/>
  </g>

  <!-- Dashboard cards -->
  <g filter="url(#cardShadow)">
    <rect x="120" y="140" width="360" height="220" rx="18" fill="#0B1220" stroke="rgba(255,255,255,0.12)"/>
    <rect x="500" y="140" width="180" height="120" rx="18" fill="#0B1220" stroke="rgba(255,255,255,0.12)"/>
    <rect x="500" y="280" width="180" height="160" rx="18" fill="#0B1220" stroke="rgba(255,255,255,0.12)"/>
  </g>

  <!-- Chart title lines -->
  <g opacity="0.9">
    <rect x="144" y="164" width="190" height="10" rx="5" fill="rgba(255,255,255,0.22)"/>
    <rect x="144" y="182" width="120" height="8" rx="4" fill="rgba(255,255,255,0.16)"/>

    <rect x="524" y="164" width="110" height="10" rx="5" fill="rgba(255,255,255,0.22)"/>
    <rect x="524" y="182" width="80" height="8" rx="4" fill="rgba(255,255,255,0.16)"/>

    <rect x="524" y="304" width="130" height="10" rx="5" fill="rgba(255,255,255,0.22)"/>
    <rect x="524" y="322" width="92" height="8" rx="4" fill="rgba(255,255,255,0.16)"/>
  </g>

  <!-- Main chart bars -->
  <g>
    <rect x="160" y="318" width="28" height="26" rx="8" fill="rgba(255,255,255,0.18)"/>
    <rect x="196" y="302" width="28" height="42" rx="8" fill="rgba(255,255,255,0.22)"/>
    <rect x="232" y="278" width="28" height="66" rx="8" fill="url(#brand)"/>
    <rect x="268" y="292" width="28" height="52" rx="8" fill="rgba(255,255,255,0.22)"/>
    <rect x="304" y="262" width="28" height="82" rx="8" fill="url(#brand)"/>
    <rect x="340" y="286" width="28" height="58" rx="8" fill="rgba(255,255,255,0.22)"/>
    <rect x="376" y="246" width="28" height="98" rx="8" fill="url(#brand)"/>
  </g>

  <!-- KPI rings -->
  <g>
    <circle cx="590" cy="212" r="34" fill="rgba(255,255,255,0.06)"/>
    <path d="M590 178a34 34 0 1 1-24.04 10" stroke="url(#brand)" stroke-width="10" stroke-linecap="round"/>
    <circle cx="590" cy="212" r="18" fill="#0B1220"/>

    <circle cx="590" cy="372" r="44" fill="rgba(255,255,255,0.06)"/>
    <path d="M590 328a44 44 0 1 1-31.1 13" stroke="url(#brand)" stroke-width="12" stroke-linecap="round"/>
    <circle cx="590" cy="372" r="22" fill="#0B1220"/>
  </g>

  <!-- Collaboration “team” nodes -->
  <g>
    <circle cx="205" cy="420" r="18" fill="#00C2FF"/>
    <circle cx="245" cy="446" r="16" fill="#00A6E8"/>
    <circle cx="285" cy="420" r="18" fill="#00C2FF"/>
    <circle cx="325" cy="446" r="16" fill="#00A6E8"/>

    <path d="M205 420C240 410 270 410 285 420" stroke="rgba(255,255,255,0.22)" stroke-width="4" stroke-linecap="round"/>
    <path d="M245 446C270 452 300 452 325 446" stroke="rgba(255,255,255,0.18)" stroke-width="4" stroke-linecap="round"/>
  </g>

  <!-- Accent corner line (subtle, professional) -->
  <path d="M94 120H220" stroke="url(#brand)" stroke-width="8" stroke-linecap="round" opacity="0.9"/>
</svg>
