<!-- Excellence Image Placeholder -->
<svg xmlns="http://www.w3.org/2000/svg" width="800" height="600" viewBox="0 0 800 600">
  <rect width="800" height="600" fill="#f8fafc"/>
  
  <defs>
    <linearGradient id="excGrad" x1="0%" y1="0%" x2="100%" y2="100%">
      <stop offset="0%" style="stop-color:#1e3a8a;stop-opacity:1" />
      <stop offset="100%" style="stop-color:#60a5fa;stop-opacity:1" />
    </linearGradient>
  </defs>
  
  <!-- Star/Award shape -->
  <g fill="url(#excGrad)" opacity="0.8">
    <polygon points="400,100 450,250 600,250 480,350 530,500 400,400 270,500 320,350 200,250 350,250"/>
  </g>
  
  <!-- Quality indicators -->
  <g fill="#ffffff" opacity="0.7">
    <circle cx="400" cy="300" r="80"/>
  </g>
  
  <!-- Excellence markers -->
  <g stroke="#3b82f6" stroke-width="4" fill="none" opacity="0.6">
    <circle cx="200" cy="200" r="30"/>
    <circle cx="600" cy="200" r="30"/>
    <circle cx="200" cy="400" r="30"/>
    <circle cx="600" cy="400" r="30"/>
  </g>
  
  <!-- Checkmarks -->
  <g stroke="#1e3a8a" stroke-width="6" stroke-linecap="round" opacity="0.5">
    <polyline points="180,200 195,215 220,185"/>
    <polyline points="580,200 595,215 620,185"/>
    <polyline points="180,400 195,415 220,385"/>
    <polyline points="580,400 595,415 620,385"/>
  </g>
</svg>